<svg xmlns="http://www.w3.org/2000/svg" viewBox="0 0 100 100">
  <rect width="100" height="100" rx="22" fill="#F5F5F7"/>
  <g transform="translate(18,25.35) scale(0.453)" fill="#04181C">
    <path d="M124.81,67.39H49.99s-30.21,40.3-30.21,40.3c-6.14,1.39-11.69,1.94-19.79-.78l29.39-39.62c-13.6,1.21-26.96-6.46-27.03-19.89l-.13-25.63C2.17,10.74,11.7.26,23.62.23L136.08,0c2.47,0,5.19,2.96,5.19,5.48l-.04,95.75c0,2.1-.67,5.17-1.89,6.04s-4.88,1.75-6.36,1.5l-5.88-.98c-1.43-.24-2.42-3.63-2.41-5.31l.12-35.09ZM28.28,51.13l96.47-.06-.13-34.58-98.81-.02c-3.81.62-7.11,3.94-7.12,7.8l-.02,18.43c0,5.43,3.91,8.44,9.61,8.44Z"/>
  </g>
</svg>
