<?xml version="1.0" encoding="UTF-8"?>
<svg id="Layer_2" data-name="Layer 2" xmlns="http://www.w3.org/2000/svg" viewBox="0 0 303.52 303.52">
  <defs>
    <style>
      .cls-1 {
        fill: none;
        stroke: #000;
        stroke-miterlimit: 10;
        stroke-width: 2px;
      }
    </style>
  </defs>
  <g id="Layer_1-2" data-name="Layer 1">
    <path d="M194.15,171.97h-64.07s-25.87,34.51-25.87,34.51c-5.26,1.19-10.01,1.66-16.95-.67l25.17-33.93c-11.65,1.04-23.09-5.53-23.15-17.04l-.11-21.95c-.05-9.44,8.11-18.42,18.32-18.44l96.32-.2c2.11,0,4.44,2.54,4.44,4.69l-.04,82c0,1.8-.57,4.43-1.62,5.18s-4.18,1.5-5.45,1.29l-5.03-.84c-1.23-.21-2.07-3.11-2.06-4.55l.1-30.05ZM111.49,158.05l82.61-.06-.11-29.62-84.62-.02c-3.26.53-6.09,3.38-6.09,6.68l-.02,15.78c0,4.65,3.35,7.23,8.23,7.22Z"/>
    <circle class="cls-1" cx="151.76" cy="151.76" r="150.76"/>
  </g>
</svg>