<?xml version="1.0" encoding="UTF-8"?>
<svg id="Layer_2" data-name="Layer 2" xmlns="http://www.w3.org/2000/svg" viewBox="0 0 311.72 311.72">
  <defs>
    <style>
      .cls-1 {
        fill: #fff;
      }
    </style>
  </defs>
  <g id="Layer_1-2" data-name="Layer 1">
    <rect class="cls-1" width="311.72" height="311.72" rx="41.54" ry="41.54"/>
    <path d="M210.03,177.93h-74.81s-30.21,40.3-30.21,40.3c-6.14,1.39-11.69,1.94-19.79-.78l29.39-39.62c-13.6,1.21-26.96-6.46-27.03-19.89l-.13-25.63c-.06-11.03,9.47-21.51,21.39-21.53l112.46-.23c2.47,0,5.19,2.96,5.19,5.48l-.04,95.75c0,2.1-.67,5.17-1.89,6.04s-4.88,1.75-6.36,1.5l-5.88-.98c-1.43-.24-2.42-3.63-2.41-5.31l.12-35.09ZM113.5,161.67l96.47-.06-.13-34.58-98.81-.02c-3.81.62-7.11,3.94-7.12,7.8l-.02,18.43c0,5.43,3.91,8.44,9.61,8.44Z"/>
  </g>
</svg>