<?xml version="1.0" encoding="UTF-8"?>
<svg id="Layer_2" data-name="Layer 2" xmlns="http://www.w3.org/2000/svg" viewBox="0 0 120.98 93.21">
  <g id="Layer_1-2" data-name="Layer 1">
    <path d="M106.89,57.71H42.82s-25.87,34.51-25.87,34.51c-5.26,1.19-10.01,1.66-16.95-.67l25.17-33.93c-11.65,1.04-23.09-5.53-23.15-17.04l-.11-21.95C1.86,9.2,10.02.22,20.23.2L116.54,0c2.11,0,4.44,2.54,4.44,4.69l-.04,82c0,1.8-.57,4.43-1.62,5.18s-4.18,1.5-5.45,1.29l-5.03-.84c-1.23-.21-2.07-3.11-2.06-4.55l.1-30.05ZM24.22,43.79l82.61-.06-.11-29.62-84.62-.02c-3.26.53-6.09,3.38-6.09,6.68l-.02,15.78c0,4.65,3.35,7.23,8.23,7.22Z"/>
  </g>
</svg>