<?xml version="1.0" encoding="UTF-8"?>
<svg id="Layer_2" data-name="Layer 2" xmlns="http://www.w3.org/2000/svg" viewBox="0 0 1206.71 93.58">
  <defs>
    <style>
      .cls-1 {
        fill: #fff;
      }
    </style>
  </defs>
  <g id="Layer_1-2" data-name="Layer 1">
    <g>
      <path class="cls-1" d="M320.25,92.99l-26.97-34.99h-63.79s-.51,33.28-.51,33.28c-3.56,3.05-9.32,2.96-13.63.13l-.1-86.4c0-2.1,2.29-4.72,4.38-4.71l96.36.15c10.13.02,18.51,8.72,18.6,18.4l.19,19.2c.12,12.59-10.73,21.27-23.78,19.92l23.13,30.29,1.56,2.22c.46.65-1.65,2.9-2.5,2.88l-12.94-.36ZM320.6,36.6l.04-14.79c.01-3.55-2.4-7.38-6.67-7.38l-84.75-.04.18,29.66h84.95c3.88-.39,6.23-3.32,6.25-7.45Z"/>
      <path class="cls-1" d="M1192.61,58.01h-64.07s-25.87,34.51-25.87,34.51c-5.26,1.19-10.01,1.66-16.95-.67l25.17-33.93c-11.65,1.04-23.09-5.53-23.15-17.04l-.11-21.95c-.05-9.44,8.11-18.42,18.32-18.44l96.32-.2c2.11,0,4.44,2.54,4.44,4.69l-.04,82c0,1.8-.57,4.43-1.62,5.18s-4.18,1.5-5.45,1.29l-5.03-.84c-1.23-.21-2.07-3.11-2.06-4.55l.1-30.05ZM1109.94,44.09l82.61-.06-.11-29.62-84.62-.02c-3.26.53-6.09,3.38-6.09,6.68l-.02,15.78c0,4.65,3.35,7.23,8.23,7.22Z"/>
      <path class="cls-1" d="M535.98,93.32l-77.49.02c-13.29,0-22.7-10.66-22.68-23.44l.05-46.76c.01-12,9.31-22.69,21.88-22.69h77.46c11.54,0,21.51,9.96,21.56,21.47l.22,50.4c-1.33,11.27-9.02,19.81-21,21.01ZM533.9,79.43c5.33-.69,7.85-3.81,9.04-8.34l-.14-48.06c-.01-4.94-4.36-8.14-8.78-8.63l-75.11.06c-5.4,0-9.04,4.87-9.04,9.68l.07,46.25c0,4.79,3.57,8.05,8.2,9.06h75.76Z"/>
      <path class="cls-1" d="M783.11.25c.65,2.35.63,4.02-.59,5.88l-56.85,86.08c-5.93,1.62-11.6,1.5-18.01.28l-56.98-86.63c-.59-.89-1.87-3.58-1.01-4.03l3.53-1.85,10.83.65,52.56,79.74L769.26.79l13.85-.53Z"/>
      <path class="cls-1" d="M976.19,92.72l-52.76-79.63-53.16,79.54c-5.51.95-10.06,1.59-16.19-.96L914.56,1.12c5.97-1.21,11.77-1.2,17.82-.01l58.22,87.8c.76,1.15-.11,3.04-1.18,4.39l-13.21-.57Z"/>
      <path class="cls-1" d="M67.12,90.41c-2.32,4.15-9.78,3.83-13.98,1.3l-.09-77.2-51.17-.22C-.63,9.27-.78,4.82,2.39.34l115.64-.02c3.77,3.46,3.75,10.1.35,14.01l-51.18.1-.09,75.98Z"/>
    </g>
  </g>
</svg>